<svg width="192" height="132" viewBox="0 0 192 132" fill="none" xmlns="http://www.w3.org/2000/svg">
<path d="M66.6471 131.344L66.9172 130.877C67.2742 131.192 67.7377 131.361 68.2143 131.349C68.8938 131.349 69.3085 131.076 69.3085 130.634C69.3085 130.193 68.8479 129.966 68.1896 129.774L67.8949 129.691C67.1784 129.494 66.603 129.181 66.603 128.422C66.603 127.606 67.2754 127.062 68.2849 127.062C68.8456 127.044 69.3924 127.238 69.815 127.606L69.5079 128.077C69.1744 127.774 68.7361 127.611 68.2849 127.623C67.6972 127.623 67.3125 127.905 67.3125 128.327C67.3125 128.779 67.729 128.945 68.2143 129.086L68.5214 129.168C69.2273 129.373 70.0197 129.73 70.0197 130.576C70.0197 131.38 69.3138 131.917 68.2549 131.917C67.6647 131.941 67.0882 131.735 66.6471 131.344Z" fill="white"/>
<path d="M80.9513 127.688H79.467V131.847H78.7823V127.688H77.2998V127.127H80.953L80.9513 127.688Z" fill="white"/>
<path d="M88.563 130.112V127.12H89.2407V130.087C89.2407 130.839 89.7701 131.349 90.5714 131.349C91.3726 131.349 91.8897 130.839 91.8897 130.087V127.127H92.5745V130.119C92.5745 131.205 91.775 131.919 90.5714 131.919C89.3678 131.919 88.563 131.198 88.563 130.112Z" fill="white"/>
<path d="M104.741 129.494C104.741 130.902 103.82 131.847 102.431 131.847H100.705V127.127H102.431C103.82 127.127 104.741 128.07 104.741 129.494ZM104.035 129.494C104.035 128.408 103.384 127.688 102.405 127.688H101.39V131.284H102.406C103.386 131.284 104.037 130.566 104.037 129.494H104.035Z" fill="white"/>
<path d="M112.635 127.127H113.318V131.847H112.635V127.127Z" fill="white"/>
<path d="M121.205 129.487C121.205 128.033 122.178 127.062 123.63 127.062C125.083 127.062 126.05 128.033 126.05 129.487C126.05 130.941 125.077 131.912 123.63 131.912C122.183 131.912 121.205 130.941 121.205 129.487ZM125.346 129.487C125.346 128.371 124.654 127.623 123.63 127.623C122.607 127.623 121.917 128.371 121.917 129.487C121.917 130.603 122.601 131.349 123.63 131.349C124.659 131.349 125.346 130.603 125.346 129.487Z" fill="white"/>
<path d="M115.401 68.6335H77.2503L58.1777 35.6876L77.2503 2.74353H115.401L134.48 35.6876L115.401 68.6335ZM78.4698 66.5217H114.185L132.038 35.6876L114.185 4.84653H78.4698L60.615 35.6876L78.4698 66.5217Z" fill="white"/>
<path d="M116.989 71.3737H75.6619L55.001 35.6877L75.6619 0H116.989L137.657 35.6877L116.989 71.3737ZM76.1402 70.5483H116.511L136.693 35.6877L116.511 0.825363H76.1402L55.9575 35.6877L76.1402 70.5483Z" fill="white"/>
<path d="M77.2434 17.0071H87.4159V19.1189C86.4113 19.2905 85.4319 19.5861 84.5004 19.9988C82.7356 20.8072 81.3678 21.788 80.3972 22.9412C79.4801 24.008 78.7832 25.2448 78.3464 26.5806C77.9949 27.6672 77.7114 28.7745 77.4975 29.8961L77.2434 29.8292V17.0071Z" fill="white"/>
<path d="M115.41 29.8328L115.157 29.8996C114.95 28.7795 114.677 27.6725 114.34 26.5841C113.927 25.2448 113.239 24.0056 112.321 22.9448C111.352 21.7927 109.986 20.8118 108.223 20.0023C107.266 19.5766 106.258 19.2749 105.223 19.1048V17.0071H115.403L115.41 29.8328Z" fill="white"/>
<path d="M93.7056 17.2482H93.7039V17.0071H98.9454V31.9428L93.7056 24.3896V17.2482Z" fill="white"/>
<path d="M106.266 58.409V58.6519H86.3887V58.409H88.2841C88.993 58.4124 89.7011 58.3606 90.4019 58.2542C91.0291 58.1661 91.6246 57.9242 92.135 57.5502C92.6733 57.1487 93.0809 56.5977 93.3068 55.9664C93.5821 55.28 93.711 54.3473 93.711 53.177V34.0388L98.9508 41.6906V53.1894C98.9508 54.3597 99.0973 55.2924 99.392 55.9787C99.6324 56.6008 100.035 57.1476 100.559 57.5626C101.067 57.944 101.667 58.1867 102.299 58.2665C103.007 58.3718 103.723 58.4236 104.439 58.4214L106.266 58.409Z" fill="white"/>
<path d="M79.3452 110.785C79.3452 112.749 80.5206 113.073 81.7595 113.073V113.485H73.7224V113.073C74.9578 113.073 76.1049 112.756 76.1049 110.785V93.0109C76.1049 91.0469 74.9613 90.7231 73.7224 90.7231V90.3113H81.7595V90.7231C80.5241 90.7231 79.3452 91.0399 79.3452 93.0109V110.785Z" fill="white"/>
<path d="M116.897 106.604L116.192 113.478H98.9155V113.034C100.186 113.034 101.711 113.003 101.711 110.785V93.0443C101.711 90.8586 99.9638 90.7319 98.9155 90.7319V90.3201H107.429V90.7636C106.095 90.7636 105.135 90.9536 105.135 93.1393V110.817C105.135 112.496 106.31 113.066 107.454 113.066C109.836 113.066 114.603 113.161 116.223 106.604H116.897Z" fill="white"/>
<path d="M140.184 102.041V110.88C140.184 112.971 142.503 113.066 142.567 113.066H144.632C149.016 113.066 150.985 110.152 151.241 106.984H151.749L151.305 113.478H134.053V113.066C135.229 113.066 136.877 112.622 136.877 110.778V101.597H140.181L140.184 102.041ZM136.298 91.999C136.298 91.999 135.44 90.7319 134.043 90.7319V90.3201H150.69L151.102 96.1486H150.627C149.99 92.8542 147.544 90.7319 144.049 90.7319H138.435L145.299 100.663C145.744 99.9956 145.934 99.0999 145.934 98.3062L146.442 98.1953V106.065H145.934" fill="white"/>
<path d="M192 113.066V113.478H185.361L178.086 102.452H175.003V110.754C175.003 113.193 177.197 113.066 178.086 113.066V113.478H168.909V113.066C169.703 113.066 171.704 113.161 171.704 110.778V102.041L171.717 101.039L171.704 91.9479C171.704 91.9479 170.307 90.7319 168.941 90.7319V90.3201H177.765C180.465 90.3201 186.06 90.8903 186.06 96.3387C186.06 99.6648 183.264 101.375 181.517 102.041C184.154 106.088 187.553 111.862 190.92 112.876C191.275 112.967 191.636 113.031 192 113.066ZM182.216 96.3387C182.216 93.1393 181.295 90.7319 177.768 90.7319H174.987V101.191C174.987 101.191 179.399 101.381 180.282 100.969C181.367 99.9112 182.216 98.7462 182.216 96.3387Z" fill="white"/>
<path d="M53.9297 110.152C53.8662 110.025 45.2556 89.9523 45.2556 89.9523C45.2556 89.9523 38.2986 108.255 38.0762 108.782C37.3456 110.525 36.3926 113.059 33.9465 113.059V113.471H41.8565V113.059H41.8265C39.977 113.043 38.7275 111.157 39.3663 109.427L40.697 105.821H48.7094L50.4389 110.208C51.0107 111.919 50.2165 113.059 48.5329 113.059V113.471H56.5699V113.059C55.3275 113.066 55.0416 112.686 53.9297 110.152ZM48.1799 104.416H41.2194L44.5955 95.2652L48.1799 104.416Z" fill="white"/>
<path d="M0 90.2883H5.66512V91.4639C5.10535 91.5597 4.55987 91.7253 4.04147 91.9567C3.16977 92.327 2.39197 92.8868 1.76484 93.5951C1.25372 94.189 0.865637 94.8781 0.622987 95.6224C0.424632 96.2267 0.263728 96.8427 0.141187 97.4667L0 97.4297V90.2883Z" fill="white"/>
<path d="M21.2521 97.4297L21.1127 97.4667C20.9974 96.8435 20.8454 96.2277 20.6573 95.6224C20.4276 94.8762 20.0447 94.1859 19.5331 93.5951C18.9038 92.8869 18.1243 92.3273 17.2512 91.9567C16.7193 91.7201 16.1595 91.5516 15.5852 91.4551V90.2883H21.2521V97.4297Z" fill="white"/>
<path d="M9.16827 90.4221H9.1665V90.2883H12.0855V98.6053L9.16827 94.3993V90.4221Z" fill="white"/>
<path d="M16.1623 113.342V113.478H5.09326V113.342H6.15216C6.5456 113.344 6.93855 113.315 7.32754 113.256C7.67755 113.208 8.01002 113.074 8.29467 112.865C8.59461 112.643 8.82181 112.336 8.94766 111.985C9.11887 111.487 9.19664 110.961 9.17709 110.435V99.7721L12.0944 104.033V110.435C12.073 110.964 12.1564 111.492 12.3397 111.989C12.4731 112.335 12.6974 112.639 12.9891 112.869C13.2681 113.077 13.5964 113.211 13.9421 113.256C14.3365 113.314 14.7347 113.343 15.1334 113.342H16.1623Z" fill="white"/>
</svg>
